<svg width="50" height="50" viewBox="0 0 50 50" fill="none" xmlns="http://www.w3.org/2000/svg">
<path d="M47.2412 0H2.75877C1.23514 0 0 1.23514 0 2.75877V47.2412C0 48.7649 1.23514 50 2.75877 50H47.2412C48.7649 50 50 48.7649 50 47.2412V2.75877C50 1.23514 48.7649 0 47.2412 0Z" fill="#3D5A98"/>
<path d="M34.4952 49.9957V30.6336H40.9929L41.9646 23.0882H34.4952V18.272C34.4952 16.0878 35.1036 14.5965 38.2341 14.5965H42.2307V7.83686C40.2954 7.63517 38.3506 7.53926 36.4048 7.54958C30.6507 7.54958 26.6879 11.0561 26.6879 17.5242V23.0882H20.1902V30.6336H26.6879V49.9957H34.4952Z" fill="#F3F4F5"/>
</svg>
