<svg width="50" height="51" viewBox="0 0 50 51" fill="none" xmlns="http://www.w3.org/2000/svg">
<path d="M1.06689 24.8937C1.06572 29.1275 2.17197 33.2615 4.27549 36.9052L0.865723 49.3549L13.6063 46.0142C17.1302 47.9326 21.0785 48.9378 25.0907 48.9381H25.1013C38.3464 48.9381 49.1282 38.1601 49.1339 24.9127C49.1364 18.4933 46.6388 12.457 42.1009 7.91559C37.5638 3.37457 31.5296 0.872421 25.1003 0.869492C11.8536 0.869492 1.07256 11.6468 1.06709 24.8937" fill="url(#paint0_linear_1_143)"/>
<path d="M0.208984 24.8859C0.207617 29.2721 1.35352 33.5539 3.53203 37.3281L0 50.224L13.1975 46.7637C16.8338 48.7463 20.9279 49.7916 25.0939 49.7932H25.1047C38.825 49.7932 49.9941 38.6275 50 24.9059C50.0023 18.2559 47.4148 12.0025 42.7148 7.29844C38.0143 2.59492 31.7643 0.00273438 25.1047 0C11.382 0 0.214453 11.1641 0.208984 24.8859ZM8.06836 36.6781L7.57559 35.8959C5.5041 32.6021 4.41074 28.7959 4.4123 24.8875C4.4168 13.4822 13.6988 4.20312 25.1125 4.20312C30.6398 4.20547 35.8344 6.36016 39.7414 10.2695C43.6482 14.1793 45.798 19.3766 45.7967 24.9043C45.7916 36.3096 36.5094 45.5898 25.1047 45.5898H25.0965C21.383 45.5879 17.741 44.5906 14.5648 42.7061L13.809 42.2578L5.97734 44.3111L8.06836 36.6779V36.6781Z" fill="url(#paint1_linear_1_143)"/>
<path d="M18.8823 14.4821C18.4163 13.4464 17.9259 13.4255 17.4827 13.4073C17.1198 13.3917 16.705 13.3929 16.2905 13.3929C15.8757 13.3929 15.2017 13.5489 14.6319 14.171C14.0616 14.7937 12.4546 16.2983 12.4546 19.3587C12.4546 22.4192 14.6837 25.3769 14.9944 25.7923C15.3056 26.2069 19.2978 32.6882 25.6204 35.1815C30.8751 37.2536 31.9444 36.8415 33.0849 36.7376C34.2255 36.6341 36.7653 35.2333 37.2835 33.7808C37.802 32.3284 37.8021 31.0835 37.6466 30.8233C37.4911 30.5642 37.0763 30.4085 36.4542 30.0976C35.8319 29.7864 32.7737 28.2815 32.2036 28.0739C31.6333 27.8665 31.2187 27.763 30.8038 28.3858C30.389 29.0077 29.1978 30.4085 28.8347 30.8233C28.472 31.2392 28.1089 31.2909 27.487 30.9798C26.8645 30.6677 24.8612 30.0116 22.4845 27.8927C20.6353 26.2438 19.3868 24.2077 19.0239 23.5849C18.661 22.963 18.9851 22.6259 19.297 22.3159C19.5765 22.0372 19.9192 21.5896 20.2306 21.2265C20.5407 20.8632 20.6442 20.604 20.8517 20.1892C21.0593 19.7739 20.9554 19.4106 20.8001 19.0995C20.6442 18.7884 19.4354 15.712 18.8823 14.4821Z" fill="#F3F4F5"/>
<defs>
<linearGradient id="paint0_linear_1_143" x1="2414.27" y1="4849.41" x2="2414.27" y2="0.869492" gradientUnits="userSpaceOnUse">
<stop stop-color="#1FAF38"/>
<stop offset="1" stop-color="#60D669"/>
</linearGradient>
<linearGradient id="paint1_linear_1_143" x1="2500" y1="5022.4" x2="2500" y2="0" gradientUnits="userSpaceOnUse">
<stop stop-color="#F9F9F9"/>
<stop offset="1" stop-color="white"/>
</linearGradient>
</defs>
</svg>
